<svg width="32" height="32" viewBox="0 0 32 32" fill="none" xmlns="http://www.w3.org/2000/svg">
<circle cx="16" cy="16" r="16" fill="#717171"/>
<path d="M21.8332 9.33203H10.1665C9.50346 9.33203 8.86758 9.59542 8.39874 10.0643C7.9299 10.5331 7.6665 11.169 7.6665 11.832V20.1654C7.6665 20.8284 7.9299 21.4643 8.39874 21.9331C8.86758 22.402 9.50346 22.6654 10.1665 22.6654H21.8332C22.4962 22.6654 23.1321 22.402 23.6009 21.9331C24.0698 21.4643 24.3332 20.8284 24.3332 20.1654V11.832C24.3332 11.169 24.0698 10.5331 23.6009 10.0643C23.1321 9.59542 22.4962 9.33203 21.8332 9.33203ZM21.2748 10.9987L15.9998 14.957L10.7248 10.9987H21.2748ZM21.8332 20.9987H10.1665C9.94549 20.9987 9.73353 20.9109 9.57725 20.7546C9.42097 20.5983 9.33317 20.3864 9.33317 20.1654V12.0404L15.4998 16.6654C15.6441 16.7735 15.8195 16.832 15.9998 16.832C16.1801 16.832 16.3556 16.7735 16.4998 16.6654L22.6665 12.0404V20.1654C22.6665 20.3864 22.5787 20.5983 22.4224 20.7546C22.2661 20.9109 22.0542 20.9987 21.8332 20.9987Z" fill="#E6E6E6"/>
</svg>
