<svg width="32" height="32" viewBox="0 0 32 32" fill="none" xmlns="http://www.w3.org/2000/svg">
<circle cx="16" cy="16" r="16" fill="#717171"/>
<path d="M19.3248 22.5847C16.4329 22.581 13.6605 21.4305 11.6156 19.3856C9.57072 17.3407 8.42025 14.5683 8.4165 11.6764C8.4165 10.8122 8.75979 9.98345 9.37085 9.37239C9.9819 8.76134 10.8107 8.41805 11.6748 8.41805C11.8578 8.41666 12.0405 8.43326 12.2203 8.46763C12.394 8.49335 12.5648 8.53605 12.7303 8.59513C12.8466 8.63595 12.9503 8.70644 13.031 8.79961C13.1118 8.89278 13.1668 9.00542 13.1907 9.12638L14.1611 13.3764C14.1872 13.4917 14.1841 13.6118 14.1519 13.7257C14.1198 13.8395 14.0596 13.9434 13.9769 14.028C13.8848 14.1272 13.8778 14.1343 13.0065 14.5876C13.7042 16.1182 14.9284 17.3474 16.4561 18.0514C16.9165 17.173 16.9236 17.166 17.0228 17.0739C17.1074 16.9912 17.2113 16.931 17.3252 16.8989C17.439 16.8667 17.5591 16.8636 17.6744 16.8897L21.9244 17.8601C22.0415 17.8873 22.1498 17.9438 22.239 18.0244C22.3282 18.1049 22.3955 18.2068 22.4344 18.3205C22.4942 18.4887 22.5392 18.6617 22.569 18.8376C22.5975 19.0157 22.6117 19.1957 22.6115 19.376C22.5984 20.2364 22.2455 21.0568 21.6297 21.658C21.014 22.2591 20.1854 22.5923 19.3248 22.5847Z" fill="#E6E6E6"/>
</svg>
